<svg id="d9390c1c-426a-40d5-94e8-17f21fac2c3c" data-name="Full Logo" xmlns="http://www.w3.org/2000/svg" viewBox="0 0 570.64 217.81"><defs><style>.dcbfd836-b311-4a64-a064-141b806623f9{fill:#5e9359;}.\35 b87934b-f5ba-40e6-97ee-ac68f97c2581{fill:#195576;}.faff9c2b-413e-4bd3-a5fd-0aac6b14590b{fill:#4c4c4c;}</style></defs><title>cdab-logo grey</title><g id="95d08b5f-819b-4e91-862b-24d7d052d695" data-name="Logo"><path class="dcbfd836-b311-4a64-a064-141b806623f9" d="M145.76,35.47c8-9.73,20.8-14.54,33.2-14.47,29.89,0,59.78-.08,89.67.06q-.11,13.94,0,27.87c-23.9.17-47.8,0-71.69.09-8.25.2-17.19.72-23.93,6.09-6.13,4.61-8.3,12.62-8.41,20,0,10.29,0,20.59,0,30.88,0,6.26,1.48,12.92,5.89,17.58,4.12,4.69,10.29,6.92,16.33,7.75,9,1.07,18.14.63,27.22.71,18.21.05,36.42-.11,54.62.09-.11,9.28-.08,18.56,0,27.85-28.86.14-57.73,0-86.6.06-11.58.2-23.62-3-32.51-10.69-8.69-7.37-13.59-18.22-16-29.17-3.12-14.48-3.39-29.45-2.28-44.18C132.64,61.61,136.45,46.82,145.76,35.47Z" transform="translate(-9.29 -20.99)"/><path class="5b87934b-f5ba-40e6-97ee-ac68f97c2581" d="M278.72,21c11.3,0,22.6-.09,33.9.08q-.17,69.44,0,138.87c-11.29.11-22.59,0-33.88.05Q278.74,90.51,278.72,21Z" transform="translate(-9.29 -20.99)"/><path class="5b87934b-f5ba-40e6-97ee-ac68f97c2581" d="M321.17,21c29.25-.06,58.51,0,87.77,0,13.53-.07,27.6,5,36.27,15.75,9.88,12,12.51,28.07,13.6,43.15.9,20.8,0,43.16-11.58,61.23-7.37,12-21.35,18.68-35.19,18.86q-45.43,0-90.87,0,0-14,0-27.95c23.94-.1,47.89,0,71.83-.06,8.45-.15,17.7-.82,24.4-6.6,5.69-4.7,7.6-12.36,7.78-19.44,0-10.32,0-20.63,0-30.94,0-6.44-1.65-13.31-6.34-18-4.05-4.34-9.91-6.44-15.66-7.27-8.36-1-16.8-.69-25.19-.74-18.95,0-37.89,0-56.83,0Q321.21,35,321.17,21Z" transform="translate(-9.29 -20.99)"/></g><path class="dcbfd836-b311-4a64-a064-141b806623f9" d="M47.58,215.66a1.3,1.3,0,0,1,1,.46l2.69,2.9a21.46,21.46,0,0,1-7.47,5.57,25.57,25.57,0,0,1-10.62,2,24.82,24.82,0,0,1-9.8-1.87,21.55,21.55,0,0,1-7.52-5.25,23.7,23.7,0,0,1-4.83-8.1A30.26,30.26,0,0,1,9.29,201a29.2,29.2,0,0,1,1.79-10.4,23.79,23.79,0,0,1,5-8.12,22.46,22.46,0,0,1,7.75-5.27,25.8,25.8,0,0,1,10-1.87A24.32,24.32,0,0,1,43.27,177a23.81,23.81,0,0,1,7.21,4.66l-2.24,3.12a1.83,1.83,0,0,1-.54.58,1.55,1.55,0,0,1-.89.23,2.77,2.77,0,0,1-1.54-.68,23.54,23.54,0,0,0-2.38-1.52,17.71,17.71,0,0,0-9.1-2.21,18.24,18.24,0,0,0-7.1,1.35,15.51,15.51,0,0,0-5.55,3.9,18,18,0,0,0-3.62,6.23A24.86,24.86,0,0,0,16.22,201a24.2,24.2,0,0,0,1.35,8.37,18.46,18.46,0,0,0,3.67,6.21,15.51,15.51,0,0,0,5.5,3.87,17.47,17.47,0,0,0,6.84,1.33,28.27,28.27,0,0,0,4-.26,16.51,16.51,0,0,0,3.32-.82,13.93,13.93,0,0,0,2.83-1.42,20.11,20.11,0,0,0,2.61-2A1.81,1.81,0,0,1,47.58,215.66Z" transform="translate(-9.29 -20.99)"/><path class="faff9c2b-413e-4bd3-a5fd-0aac6b14590b" d="M71.9,190a18.08,18.08,0,0,1,7,1.29A15,15,0,0,1,84.22,195a16.14,16.14,0,0,1,3.38,5.76,24.91,24.91,0,0,1,0,15.1,16.17,16.17,0,0,1-3.38,5.74,14.81,14.81,0,0,1-5.32,3.66,18.3,18.3,0,0,1-7,1.28,18.53,18.53,0,0,1-7.05-1.28,14.77,14.77,0,0,1-5.34-3.66,16.16,16.16,0,0,1-3.38-5.74,24.91,24.91,0,0,1,0-15.1A16.13,16.13,0,0,1,59.51,195a15,15,0,0,1,5.34-3.67A18.31,18.31,0,0,1,71.9,190Zm0,31.64q5.25,0,7.84-3.52t2.59-9.82q0-6.33-2.59-9.87t-7.84-3.54a11,11,0,0,0-4.64.91A8.62,8.62,0,0,0,64,198.44a11.66,11.66,0,0,0-2,4.22,22.59,22.59,0,0,0-.65,5.65q0,6.3,2.61,9.82T71.9,221.65Z" transform="translate(-9.29 -20.99)"/><path class="faff9c2b-413e-4bd3-a5fd-0aac6b14590b" d="M102.52,195.71a20.94,20.94,0,0,1,2.45-2.34,16.12,16.12,0,0,1,2.75-1.8,13.93,13.93,0,0,1,3.08-1.16,14.67,14.67,0,0,1,3.52-.4,12.82,12.82,0,0,1,5.13,1,9.94,9.94,0,0,1,3.71,2.73,12.06,12.06,0,0,1,2.26,4.25,18.52,18.52,0,0,1,.77,5.49V226h-6.27V203.45a9.54,9.54,0,0,0-1.84-6.25A6.83,6.83,0,0,0,112.5,195a10.47,10.47,0,0,0-5.16,1.33,17,17,0,0,0-4.43,3.61V226H96.65V190.57h3.75a1.54,1.54,0,0,1,1.65,1.29Z" transform="translate(-9.29 -20.99)"/><path class="faff9c2b-413e-4bd3-a5fd-0aac6b14590b" d="M165.63,192v2.31q0,1.16-1.47,1.47l-4,.52a11.59,11.59,0,0,1,.19,9.82,10.78,10.78,0,0,1-2.75,3.62,12.19,12.19,0,0,1-4.2,2.31,16.94,16.94,0,0,1-5.32.81,17.9,17.9,0,0,1-4.69-.6,6.32,6.32,0,0,0-1.72,1.49,2.63,2.63,0,0,0-.59,1.59,2.11,2.11,0,0,0,1,1.91,7.37,7.37,0,0,0,2.71.93,29.18,29.18,0,0,0,3.83.35q2.15.07,4.41.23a41.21,41.21,0,0,1,4.41.54,13.35,13.35,0,0,1,3.83,1.26,7.24,7.24,0,0,1,2.71,2.42,7,7,0,0,1,1,4,9.27,9.27,0,0,1-1.14,4.41,12,12,0,0,1-3.27,3.8,16.85,16.85,0,0,1-5.23,2.66,22.73,22.73,0,0,1-7,1,26.65,26.65,0,0,1-6.79-.77,15.93,15.93,0,0,1-4.83-2.06,9,9,0,0,1-2.89-3,7.1,7.1,0,0,1-1-3.55,6.39,6.39,0,0,1,1.65-4.45,11.38,11.38,0,0,1,4.52-2.91,6.44,6.44,0,0,1-2.5-1.87,5.42,5.42,0,0,1-.65-4.76,6.55,6.55,0,0,1,.86-1.65,8.8,8.8,0,0,1,1.42-1.56,9.26,9.26,0,0,1,2-1.29,10.89,10.89,0,0,1-4.1-3.9,10.71,10.71,0,0,1-1.47-5.65,10.91,10.91,0,0,1,1-4.71,10.42,10.42,0,0,1,2.78-3.6,12.74,12.74,0,0,1,4.25-2.29,18.54,18.54,0,0,1,9.71-.3A13.62,13.62,0,0,1,156,192Zm-6.33,36a3,3,0,0,0-.73-2.1,4.91,4.91,0,0,0-2-1.26,12.74,12.74,0,0,0-2.89-.65q-1.65-.19-3.48-.3l-3.73-.21q-1.89-.11-3.64-.35a9.76,9.76,0,0,0-3.2,2.29,4.69,4.69,0,0,0-1.24,3.24,4.28,4.28,0,0,0,.61,2.22,5.21,5.21,0,0,0,1.87,1.79,11,11,0,0,0,3.17,1.19,23,23,0,0,0,9,0,11.36,11.36,0,0,0,3.38-1.29,6.37,6.37,0,0,0,2.12-2A4.67,4.67,0,0,0,159.29,227.95ZM148.06,208.7a9.67,9.67,0,0,0,3.33-.52,6.79,6.79,0,0,0,2.41-1.47,6,6,0,0,0,1.47-2.26,8.2,8.2,0,0,0,.49-2.89,6.9,6.9,0,0,0-2-5.18,9.52,9.52,0,0,0-11.48,0,6.89,6.89,0,0,0-2,5.18,7.94,7.94,0,0,0,.51,2.89,6.2,6.2,0,0,0,1.49,2.26,6.79,6.79,0,0,0,2.42,1.47A9.67,9.67,0,0,0,148.06,208.7Z" transform="translate(-9.29 -20.99)"/><path class="faff9c2b-413e-4bd3-a5fd-0aac6b14590b" d="M200.31,221.05a11.83,11.83,0,0,1-2.77,2.43,17.21,17.21,0,0,1-3.45,1.7,21.9,21.9,0,0,1-3.8,1,23.3,23.3,0,0,1-3.88.33,18,18,0,0,1-6.77-1.24,14.86,14.86,0,0,1-5.35-3.64,16.69,16.69,0,0,1-3.52-5.93,24.12,24.12,0,0,1-1.26-8.12,20.67,20.67,0,0,1,1.14-6.93,16.33,16.33,0,0,1,3.27-5.58,15.06,15.06,0,0,1,5.21-3.71,17.12,17.12,0,0,1,6.93-1.35,16,16,0,0,1,5.9,1.07,13.34,13.34,0,0,1,4.69,3.08,14.12,14.12,0,0,1,3.1,5,18.94,18.94,0,0,1,1.12,6.74,4.06,4.06,0,0,1-.31,2,1.31,1.31,0,0,1-1.19.49H175.67a20.7,20.7,0,0,0,.93,5.84,11.73,11.73,0,0,0,2.29,4.15,9.25,9.25,0,0,0,3.5,2.48,12,12,0,0,0,4.55.82,13.33,13.33,0,0,0,4-.54,19.23,19.23,0,0,0,2.92-1.17,22.41,22.41,0,0,0,2-1.17,2.71,2.71,0,0,1,1.42-.54,1.37,1.37,0,0,1,1.19.59Zm-5-16.62a12.31,12.31,0,0,0-.61-4,8.94,8.94,0,0,0-1.79-3.12,8,8,0,0,0-2.85-2,10.79,10.79,0,0,0-10.9,1.89,12.21,12.21,0,0,0-3.24,7.23Z" transform="translate(-9.29 -20.99)"/><path class="faff9c2b-413e-4bd3-a5fd-0aac6b14590b" d="M214.38,195.71a20.94,20.94,0,0,1,2.45-2.34,16.12,16.12,0,0,1,2.75-1.8,13.93,13.93,0,0,1,3.08-1.16,14.67,14.67,0,0,1,3.52-.4,12.82,12.82,0,0,1,5.13,1A9.94,9.94,0,0,1,235,193.7a12.06,12.06,0,0,1,2.26,4.25,18.52,18.52,0,0,1,.77,5.49V226h-6.27V203.45a9.54,9.54,0,0,0-1.84-6.25,6.83,6.83,0,0,0-5.58-2.22,10.47,10.47,0,0,0-5.16,1.33,17,17,0,0,0-4.43,3.61V226H208.5V190.57h3.75a1.54,1.54,0,0,1,1.65,1.29Z" transform="translate(-9.29 -20.99)"/><path class="faff9c2b-413e-4bd3-a5fd-0aac6b14590b" d="M255.47,179.44a4,4,0,0,1-.37,1.7,4.9,4.9,0,0,1-1,1.4,4.51,4.51,0,0,1-1.44,1,4.38,4.38,0,0,1-1.73.35,4.13,4.13,0,0,1-1.7-.35,4.4,4.4,0,0,1-1.38-1,4.76,4.76,0,0,1-.94-1.4,4.12,4.12,0,0,1-.35-1.7,4.37,4.37,0,0,1,.35-1.73,4.64,4.64,0,0,1,.94-1.43,4.4,4.4,0,0,1,1.38-1A4.15,4.15,0,0,1,251,175a4.4,4.4,0,0,1,1.73.35,4.51,4.51,0,0,1,1.44,1,4.76,4.76,0,0,1,1,1.43A4.2,4.2,0,0,1,255.47,179.44Zm-1.33,11.13V226h-6.23V190.57Z" transform="translate(-9.29 -20.99)"/><path class="faff9c2b-413e-4bd3-a5fd-0aac6b14590b" d="M263.45,195.57a20.26,20.26,0,0,1,6.33-4.23,19.55,19.55,0,0,1,7.52-1.4,13.43,13.43,0,0,1,5.29,1,10.85,10.85,0,0,1,3.89,2.73,11.58,11.58,0,0,1,2.38,4.24,17.64,17.64,0,0,1,.81,5.46V226H286.9a2.72,2.72,0,0,1-1.4-.3,2,2,0,0,1-.77-1.17l-.7-3.36a34.6,34.6,0,0,1-2.73,2.29,15.64,15.64,0,0,1-2.8,1.68,15.22,15.22,0,0,1-3.13,1,17.13,17.13,0,0,1-3.69.37,12.75,12.75,0,0,1-3.88-.58,9,9,0,0,1-3.17-1.73,8.14,8.14,0,0,1-2.13-2.92,10.22,10.22,0,0,1-.79-4.18,7.8,7.8,0,0,1,1.16-4,10.12,10.12,0,0,1,3.74-3.45,24.6,24.6,0,0,1,6.76-2.47,51.54,51.54,0,0,1,10.22-1.1v-2.76q0-4.13-1.78-6.25a6.44,6.44,0,0,0-5.22-2.12,11.19,11.19,0,0,0-3.87.58,14.48,14.48,0,0,0-2.7,1.29q-1.14.72-2,1.29a2.83,2.83,0,0,1-1.63.58,1.79,1.79,0,0,1-1.08-.33,3,3,0,0,1-.77-.82Zm20.13,14.49a52,52,0,0,0-7.33.68,20.89,20.89,0,0,0-4.94,1.42,6.81,6.81,0,0,0-2.76,2.06,4.44,4.44,0,0,0-.86,2.66,5.87,5.87,0,0,0,.46,2.42,4.48,4.48,0,0,0,1.24,1.66,5,5,0,0,0,1.85.95,8.51,8.51,0,0,0,2.29.3,12.67,12.67,0,0,0,3-.33,11.35,11.35,0,0,0,2.57-1,14.45,14.45,0,0,0,2.31-1.51,19.81,19.81,0,0,0,2.15-2Z" transform="translate(-9.29 -20.99)"/><path class="faff9c2b-413e-4bd3-a5fd-0aac6b14590b" d="M305.59,174.47V226h-6.23V174.47Z" transform="translate(-9.29 -20.99)"/><path class="5b87934b-f5ba-40e6-97ee-ac68f97c2581" d="M378.53,201a28.25,28.25,0,0,1-1.79,10.25,22.74,22.74,0,0,1-5,7.91,22.43,22.43,0,0,1-7.82,5.09,27.27,27.27,0,0,1-10.1,1.8H335.06V175.87h18.72a27.29,27.29,0,0,1,10.1,1.8,22.32,22.32,0,0,1,7.82,5.11,22.92,22.92,0,0,1,5,7.93A28.25,28.25,0,0,1,378.53,201Zm-7,0a25.15,25.15,0,0,0-1.26-8.26,17.42,17.42,0,0,0-3.57-6.16,15.25,15.25,0,0,0-5.6-3.85,19.47,19.47,0,0,0-7.35-1.33H341.85v39.17h11.93a19.43,19.43,0,0,0,7.35-1.33,15.32,15.32,0,0,0,5.6-3.83,17.23,17.23,0,0,0,3.57-6.14A25.15,25.15,0,0,0,371.57,201Z" transform="translate(-9.29 -20.99)"/><path class="faff9c2b-413e-4bd3-a5fd-0aac6b14590b" d="M385,195.57a20.27,20.27,0,0,1,6.34-4.23,19.55,19.55,0,0,1,7.52-1.4,13.43,13.43,0,0,1,5.29,1,10.85,10.85,0,0,1,3.89,2.73,11.59,11.59,0,0,1,2.38,4.24,17.63,17.63,0,0,1,.81,5.46V226h-2.76a2.72,2.72,0,0,1-1.4-.3,2,2,0,0,1-.77-1.17l-.7-3.36a34.59,34.59,0,0,1-2.73,2.29,15.64,15.64,0,0,1-2.8,1.68,15.24,15.24,0,0,1-3.13,1,17.13,17.13,0,0,1-3.69.37,12.75,12.75,0,0,1-3.88-.58,9,9,0,0,1-3.17-1.73,8.14,8.14,0,0,1-2.13-2.92,10.23,10.23,0,0,1-.79-4.18,7.8,7.8,0,0,1,1.16-4,10.12,10.12,0,0,1,3.74-3.45,24.6,24.6,0,0,1,6.76-2.47,51.52,51.52,0,0,1,10.22-1.1v-2.76q0-4.13-1.78-6.25a6.44,6.44,0,0,0-5.22-2.12,11.19,11.19,0,0,0-3.87.58,14.51,14.51,0,0,0-2.7,1.29q-1.14.72-2,1.29a2.83,2.83,0,0,1-1.63.58,1.79,1.79,0,0,1-1.08-.33,3,3,0,0,1-.77-.82Zm20.13,14.49a52,52,0,0,0-7.33.68,20.89,20.89,0,0,0-4.94,1.42,6.8,6.8,0,0,0-2.76,2.06,4.44,4.44,0,0,0-.86,2.66,5.86,5.86,0,0,0,.46,2.42,4.48,4.48,0,0,0,1.24,1.66,5,5,0,0,0,1.85.95,8.51,8.51,0,0,0,2.29.3,12.67,12.67,0,0,0,3-.33,11.37,11.37,0,0,0,2.57-1,14.4,14.4,0,0,0,2.31-1.51,19.72,19.72,0,0,0,2.15-2Z" transform="translate(-9.29 -20.99)"/><path class="faff9c2b-413e-4bd3-a5fd-0aac6b14590b" d="M431.14,226.58a8.55,8.55,0,0,1-6.46-2.35q-2.26-2.34-2.26-6.75v-21.7h-4.27a1.39,1.39,0,0,1-.95-.33,1.29,1.29,0,0,1-.38-1v-2.49l5.81-.74,1.43-11a1.54,1.54,0,0,1,.47-.86,1.39,1.39,0,0,1,1-.33h3.15v12.21h10.25v4.51H428.65v21.28a4.53,4.53,0,0,0,1.08,3.33,3.79,3.79,0,0,0,2.8,1.08,5,5,0,0,0,1.7-.26,7.25,7.25,0,0,0,1.24-.58c.35-.21.65-.4.89-.58a1.16,1.16,0,0,1,.65-.26,1.07,1.07,0,0,1,.88.59l1.82,3a11.6,11.6,0,0,1-3.89,2.36A13.19,13.19,0,0,1,431.14,226.58Z" transform="translate(-9.29 -20.99)"/><path class="faff9c2b-413e-4bd3-a5fd-0aac6b14590b" d="M444.44,195.57a20.25,20.25,0,0,1,6.33-4.23,19.56,19.56,0,0,1,7.53-1.4,13.43,13.43,0,0,1,5.29,1,10.86,10.86,0,0,1,3.88,2.73,11.58,11.58,0,0,1,2.38,4.24,17.66,17.66,0,0,1,.81,5.46V226h-2.77a2.72,2.72,0,0,1-1.4-.3,2,2,0,0,1-.77-1.17l-.7-3.36a34.59,34.59,0,0,1-2.73,2.29,15.65,15.65,0,0,1-2.8,1.68,15.2,15.2,0,0,1-3.13,1,17.12,17.12,0,0,1-3.69.37,12.75,12.75,0,0,1-3.88-.58,9,9,0,0,1-3.17-1.73,8.14,8.14,0,0,1-2.13-2.92,10.21,10.21,0,0,1-.79-4.18,7.81,7.81,0,0,1,1.16-4,10.12,10.12,0,0,1,3.74-3.45,24.6,24.6,0,0,1,6.76-2.47,51.54,51.54,0,0,1,10.22-1.1v-2.76q0-4.13-1.78-6.25a6.44,6.44,0,0,0-5.22-2.12,11.19,11.19,0,0,0-3.87.58,14.51,14.51,0,0,0-2.7,1.29q-1.14.72-2,1.29a2.83,2.83,0,0,1-1.63.58,1.79,1.79,0,0,1-1.09-.33,3.05,3.05,0,0,1-.77-.82Zm20.13,14.49a52,52,0,0,0-7.33.68,20.9,20.9,0,0,0-4.93,1.42,6.8,6.8,0,0,0-2.76,2.06,4.44,4.44,0,0,0-.86,2.66,5.86,5.86,0,0,0,.46,2.42,4.47,4.47,0,0,0,1.24,1.66,5,5,0,0,0,1.86.95,8.5,8.5,0,0,0,2.29.3,12.67,12.67,0,0,0,3-.33,11.37,11.37,0,0,0,2.57-1,14.49,14.49,0,0,0,2.31-1.51,19.81,19.81,0,0,0,2.15-2Z" transform="translate(-9.29 -20.99)"/><path class="faff9c2b-413e-4bd3-a5fd-0aac6b14590b" d="M538,226h-5.25a2.26,2.26,0,0,1-1.47-.46,2.79,2.79,0,0,1-.84-1.15l-4.69-12.11H503.2l-4.69,12.11a2.46,2.46,0,0,1-.8,1.12,2.24,2.24,0,0,1-1.47.49H491L511,175.87h6.86ZM523.82,207.4,515.94,187q-.35-.91-.73-2.12t-.74-2.57A38.13,38.13,0,0,1,513,187l-7.87,20.37Z" transform="translate(-9.29 -20.99)"/><path class="faff9c2b-413e-4bd3-a5fd-0aac6b14590b" d="M560.57,175.87a30.59,30.59,0,0,1,8,.91,15.44,15.44,0,0,1,5.5,2.59,10.07,10.07,0,0,1,3.17,4.11,14.1,14.1,0,0,1,1,5.48,10.93,10.93,0,0,1-.58,3.55,10.64,10.64,0,0,1-1.73,3.17,12.38,12.38,0,0,1-2.92,2.64,16,16,0,0,1-4.15,1.91q5.53,1.05,8.31,3.94a10.46,10.46,0,0,1,2.78,7.58,14.09,14.09,0,0,1-1.17,5.81,12.45,12.45,0,0,1-3.43,4.51,16,16,0,0,1-5.55,2.92,25,25,0,0,1-7.49,1H544.57V175.87Zm-9.24,5.35v17.12h9a17.59,17.59,0,0,0,5-.63,10,10,0,0,0,3.5-1.75,6.85,6.85,0,0,0,2-2.71,9,9,0,0,0,.67-3.48q0-4.44-2.66-6.49t-8.26-2Zm10.85,39.41a16.67,16.67,0,0,0,5-.67,9.28,9.28,0,0,0,3.45-1.87,7.26,7.26,0,0,0,2-2.87,10.25,10.25,0,0,0,.63-3.66,7.51,7.51,0,0,0-2.76-6.14q-2.77-2.26-8.29-2.26H551.33v17.46Z" transform="translate(-9.29 -20.99)"/></svg>